<svg xmlns="http://www.w3.org/2000/svg" width="203.45999999999998" height="35" viewBox="0 0 203.45999999999998 35"><rect class="svg__rect" x="0" y="0" width="95.99" height="35" fill="#41978B"/><rect class="svg__rect" x="93.99" y="0" width="109.47" height="35" fill="#C13B3A"/><path class="svg__text" d="M15.69 22L14.22 22L14.22 13.47L16.14 13.47L18.60 20.01L21.06 13.47L22.97 13.47L22.97 22L21.49 22L21.49 19.19L21.64 15.43L19.12 22L18.06 22L15.55 15.43L15.69 19.19L15.69 22ZM28.49 22L26.95 22L30.17 13.47L31.50 13.47L34.73 22L33.18 22L32.49 20.01L29.18 20.01L28.49 22ZM30.83 15.28L29.60 18.82L32.07 18.82L30.83 15.28ZM41.14 22L38.69 22L38.69 13.47L41.21 13.47Q42.34 13.47 43.21 13.97Q44.09 14.48 44.57 15.40Q45.05 16.33 45.05 17.52L45.05 17.52L45.05 17.95Q45.05 19.16 44.57 20.08Q44.08 21.00 43.19 21.50Q42.30 22 41.14 22L41.14 22ZM40.17 14.66L40.17 20.82L41.14 20.82Q42.30 20.82 42.93 20.09Q43.55 19.36 43.56 17.99L43.56 17.99L43.56 17.52Q43.56 16.13 42.96 15.40Q42.35 14.66 41.21 14.66L41.21 14.66L40.17 14.66ZM55.09 22L49.51 22L49.51 13.47L55.05 13.47L55.05 14.66L51.00 14.66L51.00 17.02L54.50 17.02L54.50 18.19L51.00 18.19L51.00 20.82L55.09 20.82L55.09 22ZM68.38 22L65.26 22L65.26 13.47L68.19 13.47Q69.64 13.47 70.39 14.05Q71.15 14.63 71.15 15.78L71.15 15.78Q71.15 16.36 70.83 16.83Q70.51 17.30 69.90 17.56L69.90 17.56Q70.60 17.75 70.97 18.26Q71.35 18.78 71.35 19.51L71.35 19.51Q71.35 20.71 70.58 21.36Q69.81 22 68.38 22L68.38 22ZM66.75 18.15L66.75 20.82L68.39 20.82Q69.09 20.82 69.48 20.47Q69.88 20.13 69.88 19.51L69.88 19.51Q69.88 18.18 68.52 18.15L68.52 18.15L66.75 18.15ZM66.75 14.66L66.75 17.06L68.20 17.06Q68.89 17.06 69.28 16.75Q69.67 16.43 69.67 15.86L69.67 15.86Q69.67 15.23 69.31 14.95Q68.95 14.66 68.19 14.66L68.19 14.66L66.75 14.66ZM77.86 18.86L75.00 13.47L76.64 13.47L78.61 17.51L80.57 13.47L82.21 13.47L79.35 18.86L79.35 22L77.86 22L77.86 18.86Z" fill="#FFFFFF"/><path class="svg__text" d="M110.53 22L108.18 22L108.18 13.60L110.53 13.60L110.53 17.09L113.79 13.60L116.40 13.60L112.97 17.32L116.58 22L113.82 22L111.42 18.95L110.53 19.90L110.53 22ZM123.07 22L120.69 22L120.69 13.60L123.07 13.60L123.07 16.76L126.31 16.76L126.31 13.60L128.68 13.60L128.68 22L126.31 22L126.31 18.72L123.07 18.72L123.07 22ZM133.41 17.80L133.41 17.80Q133.41 16.55 134.02 15.55Q134.62 14.56 135.68 14.00Q136.75 13.43 138.08 13.43L138.08 13.43Q139.41 13.43 140.47 14.00Q141.54 14.56 142.14 15.55Q142.75 16.55 142.75 17.80L142.75 17.80Q142.75 19.05 142.14 20.04Q141.54 21.04 140.47 21.60Q139.41 22.17 138.08 22.17L138.08 22.17Q136.75 22.17 135.68 21.60Q134.62 21.04 134.02 20.04Q133.41 19.05 133.41 17.80ZM135.81 17.80L135.81 17.80Q135.81 18.51 136.11 19.05Q136.41 19.60 136.93 19.90Q137.45 20.20 138.08 20.20L138.08 20.20Q138.72 20.20 139.23 19.90Q139.75 19.60 140.05 19.05Q140.35 18.51 140.35 17.80L140.35 17.80Q140.35 17.09 140.05 16.54Q139.75 16 139.23 15.70Q138.72 15.40 138.08 15.40L138.08 15.40Q137.44 15.40 136.93 15.70Q136.41 16 136.11 16.54Q135.81 17.09 135.81 17.80ZM147.41 18.26L147.41 18.26L147.41 13.60L149.79 13.60L149.79 18.19Q149.79 20.20 151.38 20.20L151.38 20.20Q152.96 20.20 152.96 18.19L152.96 18.19L152.96 13.60L155.30 13.60L155.30 18.26Q155.30 20.13 154.26 21.15Q153.22 22.17 151.36 22.17L151.36 22.17Q149.48 22.17 148.44 21.15Q147.41 20.13 147.41 18.26ZM159.80 21.24L159.80 21.24L160.58 19.49Q161.15 19.86 161.89 20.09Q162.63 20.32 163.36 20.32L163.36 20.32Q164.72 20.32 164.73 19.64L164.73 19.64Q164.73 19.28 164.34 19.11Q163.95 18.93 163.08 18.74L163.08 18.74Q162.13 18.53 161.50 18.30Q160.86 18.06 160.41 17.55Q159.95 17.03 159.95 16.16L159.95 16.16Q159.95 15.39 160.37 14.77Q160.79 14.15 161.62 13.79Q162.46 13.43 163.67 13.43L163.67 13.43Q164.49 13.43 165.30 13.62Q166.10 13.80 166.72 14.17L166.72 14.17L165.99 15.93Q164.79 15.28 163.65 15.28L163.65 15.28Q162.95 15.28 162.62 15.49Q162.30 15.70 162.30 16.04L162.30 16.04Q162.30 16.37 162.68 16.54Q163.07 16.71 163.92 16.89L163.92 16.89Q164.88 17.10 165.51 17.33Q166.14 17.56 166.60 18.07Q167.06 18.58 167.06 19.46L167.06 19.46Q167.06 20.21 166.65 20.83Q166.23 21.44 165.39 21.80Q164.55 22.17 163.34 22.17L163.34 22.17Q162.32 22.17 161.36 21.92Q160.40 21.67 159.80 21.24ZM173.43 15.48L170.85 15.48L170.85 13.60L178.37 13.60L178.37 15.48L175.81 15.48L175.81 22L173.43 22L173.43 15.48ZM182.32 17.80L182.32 17.80Q182.32 16.55 182.92 15.55Q183.52 14.56 184.59 14.00Q185.65 13.43 186.98 13.43L186.98 13.43Q188.31 13.43 189.37 14.00Q190.44 14.56 191.04 15.55Q191.65 16.55 191.65 17.80L191.65 17.80Q191.65 19.05 191.04 20.04Q190.44 21.04 189.38 21.60Q188.32 22.17 186.98 22.17L186.98 22.17Q185.65 22.17 184.59 21.60Q183.52 21.04 182.92 20.04Q182.32 19.05 182.32 17.80ZM184.71 17.80L184.71 17.80Q184.71 18.51 185.01 19.05Q185.32 19.60 185.83 19.90Q186.35 20.20 186.98 20.20L186.98 20.20Q187.62 20.20 188.13 19.90Q188.65 19.60 188.95 19.05Q189.25 18.51 189.25 17.80L189.25 17.80Q189.25 17.09 188.95 16.54Q188.65 16 188.13 15.70Q187.62 15.40 186.98 15.40L186.98 15.40Q186.34 15.40 185.83 15.70Q185.32 16 185.01 16.54Q184.71 17.09 184.71 17.80Z" fill="#FFFFFF" x="106.99"/></svg>