<svg xmlns="http://www.w3.org/2000/svg" width="81" height="35" viewBox="0 0 81 35"><rect class="svg__rect" x="0" y="0" width="81" height="35" fill="#FF002A"/><rect class="svg__rect" x="81" y="0" width="0" height="35" fill="#FFE306"/><path class="svg__text" d="M16.67 22L14.22 22L14.22 13.47L16.74 13.47Q17.87 13.47 18.74 13.97Q19.62 14.48 20.10 15.40Q20.58 16.33 20.58 17.52L20.58 17.52L20.58 17.95Q20.58 19.16 20.10 20.08Q19.61 21.00 18.72 21.50Q17.83 22 16.67 22L16.67 22ZM15.70 14.66L15.70 20.82L16.67 20.82Q17.83 20.82 18.46 20.09Q19.08 19.36 19.09 17.99L19.09 17.99L19.09 17.52Q19.09 16.13 18.49 15.40Q17.89 14.66 16.74 14.66L16.74 14.66L15.70 14.66ZM30.62 22L25.05 22L25.05 13.47L30.58 13.47L30.58 14.66L26.53 14.66L26.53 17.02L30.03 17.02L30.03 18.19L26.53 18.19L26.53 20.82L30.62 20.82L30.62 22ZM40.17 22L34.82 22L34.82 13.47L36.30 13.47L36.30 20.82L40.17 20.82L40.17 22ZM49.88 22L44.30 22L44.30 13.47L49.84 13.47L49.84 14.66L45.78 14.66L45.78 17.02L49.29 17.02L49.29 18.19L45.78 18.19L45.78 20.82L49.88 20.82L49.88 22ZM55.75 14.66L53.12 14.66L53.12 13.47L59.89 13.47L59.89 14.66L57.23 14.66L57.23 22L55.75 22L55.75 14.66ZM69.22 22L63.64 22L63.64 13.47L69.18 13.47L69.18 14.66L65.12 14.66L65.12 17.02L68.63 17.02L68.63 18.19L65.12 18.19L65.12 20.82L69.22 20.82L69.22 22Z" fill="#FFFFFF"/><path class="svg__text" d="" fill="#763396" x="94"/></svg>