<svg xmlns="http://www.w3.org/2000/svg" width="52.99" height="35" viewBox="0 0 52.99 35"><rect class="svg__rect" x="0" y="0" width="52.99" height="35" fill="#3C9AD5"/><rect class="svg__rect" x="52.99" y="0" width="0" height="35" fill="#FFE306"/><path class="svg__text" d="M13.97 18.13L13.97 18.13L13.97 17.46Q13.97 15.53 14.90 14.44Q15.82 13.35 17.48 13.35L17.48 13.35Q18.90 13.35 19.74 14.05Q20.58 14.76 20.75 16.08L20.75 16.08L19.30 16.08Q19.05 14.54 17.51 14.54L17.51 14.54Q16.51 14.54 16.00 15.26Q15.48 15.98 15.46 17.37L15.46 17.37L15.46 18.02Q15.46 19.40 16.04 20.17Q16.63 20.93 17.66 20.93L17.66 20.93Q18.80 20.93 19.28 20.42L19.28 20.42L19.28 18.75L17.52 18.75L17.52 17.62L20.76 17.62L20.76 20.89Q20.29 21.50 19.47 21.81Q18.65 22.12 17.61 22.12L17.61 22.12Q16.54 22.12 15.71 21.63Q14.89 21.14 14.44 20.24Q13.99 19.33 13.97 18.13ZM30.95 22L25.37 22L25.37 13.47L30.91 13.47L30.91 14.66L26.86 14.66L26.86 17.02L30.36 17.02L30.36 18.19L26.86 18.19L26.86 20.82L30.95 20.82L30.95 22ZM36.83 14.66L34.19 14.66L34.19 13.47L40.96 13.47L40.96 14.66L38.30 14.66L38.30 22L36.83 22L36.83 14.66Z" fill="#FFFFFF"/><path class="svg__text" d="" fill="#763396" x="65.99000000000001"/></svg>