<svg xmlns="http://www.w3.org/2000/svg" width="63.97" height="35" viewBox="0 0 63.97 35"><rect class="svg__rect" x="0" y="0" width="63.97" height="35" fill="#8FC965"/><rect class="svg__rect" x="63.97" y="0" width="0" height="35" fill="#FFE306"/><path class="svg__text" d="M15.70 22L14.22 22L14.22 13.47L17.48 13.47Q18.91 13.47 19.75 14.21Q20.59 14.96 20.59 16.18L20.59 16.18Q20.59 17.44 19.77 18.13Q18.95 18.83 17.46 18.83L17.46 18.83L15.70 18.83L15.70 22ZM15.70 14.66L15.70 17.64L17.48 17.64Q18.27 17.64 18.69 17.27Q19.10 16.90 19.10 16.19L19.10 16.19Q19.10 15.50 18.68 15.09Q18.26 14.68 17.52 14.66L17.52 14.66L15.70 14.66ZM24.61 18.00L24.61 18.00L24.61 17.52Q24.61 16.28 25.05 15.32Q25.49 14.37 26.30 13.86Q27.10 13.35 28.14 13.35Q29.19 13.35 29.99 13.85Q30.80 14.35 31.24 15.29Q31.68 16.23 31.68 17.48L31.68 17.48L31.68 17.96Q31.68 19.21 31.25 20.16Q30.82 21.10 30.01 21.61Q29.21 22.12 28.16 22.12L28.16 22.12Q27.12 22.12 26.31 21.61Q25.50 21.10 25.05 20.17Q24.61 19.23 24.61 18.00ZM26.09 17.46L26.09 17.96Q26.09 19.36 26.64 20.13Q27.18 20.90 28.16 20.90L28.16 20.90Q29.14 20.90 29.67 20.15Q30.20 19.40 30.20 17.96L30.20 17.96L30.20 17.51Q30.20 16.09 29.67 15.34Q29.13 14.58 28.14 14.58L28.14 14.58Q27.18 14.58 26.64 15.33Q26.10 16.09 26.09 17.46L26.09 17.46ZM35.72 19.42L35.72 19.42L37.20 19.42Q37.20 20.15 37.68 20.55Q38.16 20.95 39.06 20.95L39.06 20.95Q39.83 20.95 40.22 20.63Q40.61 20.32 40.61 19.80L40.61 19.80Q40.61 19.24 40.21 18.94Q39.82 18.63 38.79 18.32Q37.75 18.01 37.14 17.63L37.14 17.63Q35.98 16.90 35.98 15.72L35.98 15.72Q35.98 14.69 36.82 14.02Q37.66 13.35 39.00 13.35L39.00 13.35Q39.89 13.35 40.59 13.68Q41.29 14.01 41.69 14.61Q42.08 15.22 42.08 15.96L42.08 15.96L40.61 15.96Q40.61 15.29 40.19 14.91Q39.77 14.54 38.99 14.54L38.99 14.54Q38.26 14.54 37.86 14.85Q37.46 15.16 37.46 15.71L37.46 15.71Q37.46 16.18 37.89 16.50Q38.33 16.81 39.32 17.10Q40.32 17.40 40.92 17.78Q41.53 18.16 41.81 18.65Q42.09 19.13 42.09 19.79L42.09 19.79Q42.09 20.86 41.27 21.49Q40.46 22.12 39.06 22.12L39.06 22.12Q38.13 22.12 37.35 21.77Q36.58 21.43 36.15 20.83Q35.72 20.22 35.72 19.42ZM48.06 14.66L45.42 14.66L45.42 13.47L52.19 13.47L52.19 14.66L49.53 14.66L49.53 22L48.06 22L48.06 14.66Z" fill="#FFFFFF"/><path class="svg__text" d="" fill="#763396" x="76.97"/></svg>