<svg xmlns="http://www.w3.org/2000/svg" width="53.28" height="35" viewBox="0 0 53.28 35"><rect class="svg__rect" x="0" y="0" width="53.28" height="35" fill="#E46C17"/><rect class="svg__rect" x="53.28" y="0" width="0" height="35" fill="#FFE306"/><path class="svg__text" d="M15.70 22L14.22 22L14.22 13.47L17.48 13.47Q18.91 13.47 19.75 14.21Q20.59 14.96 20.59 16.18L20.59 16.18Q20.59 17.44 19.77 18.13Q18.95 18.83 17.46 18.83L17.46 18.83L15.70 18.83L15.70 22ZM15.70 14.66L15.70 17.64L17.48 17.64Q18.27 17.64 18.69 17.27Q19.10 16.90 19.10 16.19L19.10 16.19Q19.10 15.50 18.68 15.09Q18.26 14.68 17.52 14.66L17.52 14.66L15.70 14.66ZM24.74 19.16L24.74 19.16L24.74 13.47L26.22 13.47L26.22 19.18Q26.22 20.03 26.65 20.48Q27.08 20.93 27.93 20.93L27.93 20.93Q29.64 20.93 29.64 19.13L29.64 19.13L29.64 13.47L31.12 13.47L31.12 19.17Q31.12 20.53 30.25 21.32Q29.38 22.12 27.93 22.12L27.93 22.12Q26.46 22.12 25.60 21.33Q24.74 20.55 24.74 19.16ZM37.37 14.66L34.73 14.66L34.73 13.47L41.50 13.47L41.50 14.66L38.84 14.66L38.84 22L37.37 22L37.37 14.66Z" fill="#FFFFFF"/><path class="svg__text" d="" fill="#763396" x="66.28"/></svg>