<?xml version="1.0" encoding="iso-8859-1"?>
<!-- Generator: Adobe Illustrator 19.0.0, SVG Export Plug-In . SVG Version: 6.00 Build 0)  -->
<svg version="1.1" id="Layer_1" xmlns="http://www.w3.org/2000/svg" xmlns:xlink="http://www.w3.org/1999/xlink" x="0px" y="0px"
	 viewBox="0 0 512 512" style="enable-background:new 0 0 512 512;" xml:space="preserve">
<g>
	<g>
		<path fill="#424340" d="M451.931,232.109c0-12.979-3.681-25.453-10.542-36.178c6.861-10.725,10.542-23.198,10.542-36.178
			c0-37.121-30.2-67.321-67.32-67.321c-9.302,0-18.736,1.048-28.241,3.13c2.083-9.504,3.13-18.939,3.13-28.241
			C359.5,30.2,329.299,0,292.177,0c-12.98,0-25.453,3.682-36.178,10.542C245.276,3.682,232.802,0,219.822,0
			c-37.121,0-67.321,30.2-67.321,67.321c0,9.302,1.047,18.736,3.13,28.24c-9.504-2.082-18.939-3.129-28.241-3.129
			c-37.12,0-67.32,30.2-67.32,67.321c0,12.98,3.681,25.453,10.542,36.178c-6.861,10.725-10.542,23.198-10.542,36.178
			c0,37.121,30.2,67.321,67.32,67.321c9.303,0,18.736-1.047,28.241-3.129c-2.083,9.504-3.13,18.939-3.13,28.24
			c0,37.121,30.2,67.321,67.321,67.321c7.218,0,14.278-1.142,20.97-3.333v15.161c0,59.721,48.586,108.307,108.307,108.307h87.624
			v-30.417h-87.624c-42.949,0-77.89-34.941-77.89-77.89v-15.161c6.691,2.19,13.752,3.333,20.97,3.333
			c37.121,0,67.321-30.2,67.321-67.321c0-9.302-1.047-18.736-3.13-28.24c9.504,2.082,18.939,3.129,28.241,3.129
			C421.731,299.431,451.931,269.23,451.931,232.109z M338.698,258.576l-35.887-15.833l15.833,35.886
			c6.925,15.697,10.437,31.144,10.437,45.912c0,20.349-16.555,36.904-36.904,36.904c-9.599,0-18.695-3.678-25.616-10.357
			l-10.562-10.195l-10.562,10.195c-6.92,6.679-16.018,10.357-25.616,10.357c-20.349,0-36.904-16.555-36.904-36.904
			c0-14.768,3.512-30.214,10.437-45.912l15.833-35.886L173.3,258.576c-15.697,6.926-31.144,10.437-45.912,10.437
			c-20.348,0-36.903-16.555-36.903-36.904c0-9.599,3.678-18.695,10.357-25.615l10.196-10.562l-10.196-10.562
			c-6.679-6.92-10.357-16.017-10.357-25.616c0-20.349,16.555-36.904,36.903-36.904c14.768,0,30.214,3.511,45.912,10.437
			l35.887,15.833l-15.833-35.886c-6.925-15.697-10.437-31.144-10.437-45.912c0-20.349,16.555-36.904,36.904-36.904
			c9.599,0,18.695,3.678,25.616,10.357l10.562,10.195l10.562-10.195c6.921-6.68,16.019-10.358,25.616-10.358
			c20.349,0,36.904,16.555,36.904,36.904c0,14.768-3.512,30.214-10.437,45.912l-15.832,35.885l35.886-15.832
			c15.698-6.926,31.146-10.437,45.912-10.437c20.348,0,36.903,16.555,36.903,36.904c0,9.6-3.678,18.696-10.357,25.616
			l-10.196,10.562l10.196,10.562c6.679,6.92,10.357,16.017,10.357,25.615c0,20.349-16.555,36.904-36.903,36.904
			C369.842,269.013,354.397,265.502,338.698,258.576z"/>
	</g>
</g>
<g>
	<g>
		<polygon fill="#424340" points="271.209,180.724 271.209,87.66 240.791,87.66 240.791,180.724 147.728,180.724 147.728,211.141 240.791,211.141 
			240.791,304.203 271.209,304.203 271.209,211.141 364.272,211.141 364.272,180.724 		"/>
	</g>
</g>
<g>
</g>
<g>
</g>
<g>
</g>
<g>
</g>
<g>
</g>
<g>
</g>
<g>
</g>
<g>
</g>
<g>
</g>
<g>
</g>
<g>
</g>
<g>
</g>
<g>
</g>
<g>
</g>
<g>
</g>
</svg>
