<svg xmlns="http://www.w3.org/2000/svg" width="174.20999999999998" height="35" viewBox="0 0 174.20999999999998 35"><rect class="svg__rect" x="0" y="0" width="95.99" height="35" fill="#5593C7"/><rect class="svg__rect" x="93.99" y="0" width="80.21999999999998" height="35" fill="#D35B09"/><path class="svg__text" d="M15.69 22L14.22 22L14.22 13.47L16.14 13.47L18.60 20.01L21.06 13.47L22.97 13.47L22.97 22L21.49 22L21.49 19.19L21.64 15.43L19.12 22L18.06 22L15.55 15.43L15.69 19.19L15.69 22ZM28.49 22L26.95 22L30.17 13.47L31.50 13.47L34.73 22L33.18 22L32.49 20.01L29.18 20.01L28.49 22ZM30.83 15.28L29.60 18.82L32.07 18.82L30.83 15.28ZM41.14 22L38.69 22L38.69 13.47L41.21 13.47Q42.34 13.47 43.21 13.97Q44.09 14.48 44.57 15.40Q45.05 16.33 45.05 17.52L45.05 17.52L45.05 17.95Q45.05 19.16 44.57 20.08Q44.08 21.00 43.19 21.50Q42.30 22 41.14 22L41.14 22ZM40.17 14.66L40.17 20.82L41.14 20.82Q42.30 20.82 42.93 20.09Q43.55 19.36 43.56 17.99L43.56 17.99L43.56 17.52Q43.56 16.13 42.96 15.40Q42.35 14.66 41.21 14.66L41.21 14.66L40.17 14.66ZM55.09 22L49.51 22L49.51 13.47L55.05 13.47L55.05 14.66L51.00 14.66L51.00 17.02L54.50 17.02L54.50 18.19L51.00 18.19L51.00 20.82L55.09 20.82L55.09 22ZM68.38 22L65.26 22L65.26 13.47L68.19 13.47Q69.64 13.47 70.39 14.05Q71.15 14.63 71.15 15.78L71.15 15.78Q71.15 16.36 70.83 16.83Q70.51 17.30 69.90 17.56L69.90 17.56Q70.60 17.75 70.97 18.26Q71.35 18.78 71.35 19.51L71.35 19.51Q71.35 20.71 70.58 21.36Q69.81 22 68.38 22L68.38 22ZM66.75 18.15L66.75 20.82L68.39 20.82Q69.09 20.82 69.48 20.47Q69.88 20.13 69.88 19.51L69.88 19.51Q69.88 18.18 68.52 18.15L68.52 18.15L66.75 18.15ZM66.75 14.66L66.75 17.06L68.20 17.06Q68.89 17.06 69.28 16.75Q69.67 16.43 69.67 15.86L69.67 15.86Q69.67 15.23 69.31 14.95Q68.95 14.66 68.19 14.66L68.19 14.66L66.75 14.66ZM77.86 18.86L75.00 13.47L76.64 13.47L78.61 17.51L80.57 13.47L82.21 13.47L79.35 18.86L79.35 22L77.86 22L77.86 18.86Z" fill="#FFFFFF"/><path class="svg__text" d="M109.60 22L107.17 22L110.88 13.60L113.22 13.60L116.94 22L114.47 22L113.81 20.37L110.26 20.37L109.60 22ZM112.03 15.93L110.95 18.61L113.11 18.61L112.03 15.93ZM123.42 22L121.09 22L121.09 13.60L123.05 13.60L126.76 18.07L126.76 13.60L129.08 13.60L129.08 22L127.13 22L123.42 17.52L123.42 22ZM135.66 22L133.24 22L136.95 13.60L139.29 13.60L143.01 22L140.54 22L139.88 20.37L136.33 20.37L135.66 22ZM138.10 15.93L137.02 18.61L139.18 18.61L138.10 15.93ZM146.13 11.99L146.13 11.99Q146.13 11.57 146.40 11.31Q146.67 11.04 147.08 11.04L147.08 11.04Q147.49 11.04 147.76 11.31Q148.03 11.57 148.03 11.99L148.03 11.99Q148.03 12.41 147.76 12.67Q147.49 12.93 147.08 12.93L147.08 12.93Q146.67 12.93 146.40 12.67Q146.13 12.41 146.13 11.99ZM149.54 22L147.16 22L147.16 13.60L149.54 13.60L149.54 22ZM148.68 11.99L148.68 11.99Q148.68 11.57 148.95 11.31Q149.22 11.04 149.63 11.04L149.63 11.04Q150.04 11.04 150.30 11.31Q150.57 11.57 150.57 11.99L150.57 11.99Q150.57 12.41 150.30 12.67Q150.03 12.93 149.63 12.93L149.63 12.93Q149.22 12.93 148.95 12.67Q148.68 12.41 148.68 11.99ZM154.13 21.24L154.13 21.24L154.91 19.49Q155.47 19.86 156.21 20.09Q156.96 20.32 157.68 20.32L157.68 20.32Q159.04 20.32 159.05 19.64L159.05 19.64Q159.05 19.28 158.66 19.11Q158.27 18.93 157.40 18.74L157.40 18.74Q156.45 18.53 155.82 18.30Q155.18 18.06 154.73 17.55Q154.27 17.03 154.27 16.16L154.27 16.16Q154.27 15.39 154.69 14.77Q155.11 14.15 155.95 13.79Q156.78 13.43 157.99 13.43L157.99 13.43Q158.81 13.43 159.62 13.62Q160.43 13.80 161.04 14.17L161.04 14.17L160.31 15.93Q159.11 15.28 157.98 15.28L157.98 15.28Q157.27 15.28 156.95 15.49Q156.62 15.70 156.62 16.04L156.62 16.04Q156.62 16.37 157.01 16.54Q157.39 16.71 158.24 16.89L158.24 16.89Q159.20 17.10 159.83 17.33Q160.46 17.56 160.92 18.07Q161.39 18.58 161.39 19.46L161.39 19.46Q161.39 20.21 160.97 20.83Q160.55 21.44 159.71 21.80Q158.87 22.17 157.67 22.17L157.67 22.17Q156.65 22.17 155.69 21.92Q154.72 21.67 154.13 21.24Z" fill="#FFFFFF" x="106.99"/></svg>